<svg width="20" height="12" viewBox="0 0 20 12" fill="none" xmlns="http://www.w3.org/2000/svg">
<path d="M9.99805 4.2C11.2048 4.2 12.1851 3.25875 12.1851 2.1C12.1851 0.94125 11.2048 0 9.99805 0C8.79125 0 7.81098 0.94125 7.81098 2.1C7.81098 3.25875 8.79125 4.2 9.99805 4.2ZM9.99805 6C7.92814 6 6.24878 7.6125 6.24878 9.6V10.8C6.24878 11.4638 6.80726 12 7.49854 12H12.4976C13.1888 12 13.7473 11.4638 13.7473 10.8V9.6C13.7473 7.6125 12.068 6 9.99805 6ZM4.99902 3.6C4.99902 2.60625 4.15934 1.8 3.12439 1.8C2.08944 1.8 1.24976 2.60625 1.24976 3.6C1.24976 4.59375 2.08944 5.4 3.12439 5.4C4.15934 5.4 4.99902 4.59375 4.99902 3.6ZM18.7463 3.6C18.7463 2.60625 17.9067 1.8 16.8717 1.8C15.8367 1.8 14.9971 2.60625 14.9971 3.6C14.9971 4.59375 15.8367 5.4 16.8717 5.4C17.9067 5.4 18.7463 4.59375 18.7463 3.6ZM3.12439 6.6C1.39816 6.6 0 7.9425 0 9.6V10.8412C0 11.4787 0.538957 12 1.2068 12H4.63581C4.46788 11.6325 4.37415 11.2275 4.37415 10.8V9.5C4.37415 8.81 4.63581 7.61079 5 7C4.52353 6.71875 3.72193 6.6 3.12439 6.6ZM15.3642 12H18.7932C19.4571 12 20 11.4825 20 10.8412V9.6C20 7.9425 18.6018 6.6 16.8756 6.6C16.2781 6.6 15.4765 6.71875 15 7C15.246 7.6075 15.6259 8.81 15.6259 9.5V10.8C15.6259 11.2275 15.5321 11.6325 15.3642 12Z" fill="#677284"/>
</svg>
