<svg width="12" height="14" viewBox="0 0 12 14" fill="none" xmlns="http://www.w3.org/2000/svg">
<path d="M2.57143 0.875V1.75H1.28571C0.575893 1.75 0 2.33789 0 3.0625V4.375H12V3.0625C12 2.33789 11.4241 1.75 10.7143 1.75H9.42857V0.875C9.42857 0.391016 9.04554 0 8.57143 0C8.09732 0 7.71429 0.391016 7.71429 0.875V1.75H4.28571V0.875C4.28571 0.391016 3.90268 0 3.42857 0C2.95446 0 2.57143 0.391016 2.57143 0.875ZM12 5.25H0V12.6875C0 13.4121 0.575893 14 1.28571 14H10.7143C11.4241 14 12 13.4121 12 12.6875V5.25Z" fill="#677284"/>
</svg>
